**ABCDEFGHIJKLMNOPQRSTUVWXYZabcdefghijklmnopqrstuvwxyz**************************
**PARASOLID !"#$%&'()*+,-./:;<=>?@[\]^_`{|}~0123456789**************************
**PART1;
MC=AMD64;
MC_MODEL=AMD64 Family 23 Model 24 Stepping 1, AuthenticAMD;
MC_ID=unknown;
OS=Windows_NT;
OS_RELEASE=unknown;
FRU=Parasolid Version 30.0, build 298, 12-15-2017;
APPL=SOLIDWORKS 2018-2018134;
SITE=;
USER=unknown;
FORMAT=text;
GUISE=transmit;
KEY=full;
FILE=full.x_t;
DATE=Thu Jul  2 15:37:49 2020;
**PART2;
SCH=SCH_3000298_30000;
USFLD_SIZE=0;
**PART3;
**END_OF_HEADER*****************************************************************
T51 : TRANSMIT FILE created by modeller version 300029823 SCH_3000298_30000_1300
6205 0 10 19 CCCCCCCI4 mesh1006 0 I8 polyline1008 0 CCCCCCCCCCZ1 45 2 3 0 0 0 0
 0 0 0 1e3 1e-8 0 0 0 1 0 1 4 81 255 1 2 45 5 1 0 0 0 0 0 70 11 CI9 list_type0 0
 1 uI10 notransmit0 0 1 lCCCDCCDI12 finger_index0 0 1 dI12 finger_block1012 0 CZ
3 0 4 T1 0 0 1 20 1 6 6 11 255 4 43 0 1 7 8 1 9 0 9 0 12 33 CCCCCCI4 mesh1006 0
 I8 polyline1008 0 CCCCCCCDI5 owner1040 0 CCCCCCI13 boundary_mesh1006 0 I17 boun
dary_polyline1008 0 CCCA16 index_map_offset0 0 1 dA9 index_map82 0 A17 node_id_i
ndex_map82 0 A20 schema_embedding_map82 0 A5 child12 0 A14 lowest_node_id0 0 1 d
Z7 183 10 11 0 0 0 0 0 0 1e3 1e-8 4 12 0 1 0 1 1 13 14 15 0 0 0 16 17 0 0 0 0 0
 0 0 100 255 8 44 4 0 0 0 -1 0 .1934768198156555 0 -.981104846687662 .9811048466
87662 0 .1934768198156555 -.02579413264679595 .0723591460761859 .065322533568496
6 1 3 ?11 9 41 0 1 7 18 1 19 4 19 4 100 18 42 9 0 0 0 -1 0 .1934768198156555 0 -
.981104846687662 .981104846687662 0 .1934768198156555 -.02579413264679595 .03425
914607618585 .0653225335684966 1 3 ?11 19 39 0 1 7 20 1 21 9 21 9 100 20 40 19 0
 0 0 -1 0 .1934768198156555 0 -.981104846687662 .981104846687662 0 .193476819815
6555 -.02579413264679595 .0520391460761859 .0653225335684966 1 3 ?11 21 37 0 1 7
 22 1 23 19 23 19 100 22 38 21 0 0 0 -1 0 -.0885410052782842 0 .996072532692429
 -.996072532692429 0 -.0885410052782842 .0621533673532041 .0901391460761859 .065
3225335684966 1 3 ?11 23 35 0 1 7 24 1 25 21 25 21 100 24 36 23 0 0 0 -1 0 -.088
5410052782842 0 .996072532692429 -.996072532692429 0 -.0885410052782842 .0621533
673532041 .0723591460761859 .0653225335684966 1 3 ?11 25 33 0 1 7 26 1 27 23 27
 23 100 26 34 25 0 0 0 -1 0 .1934768198156555 0 -.981104846687662 .9811048466876
62 0 .1934768198156555 -.02579413264679595 .0901391460761859 .0653225335684966 1
 3 ?11 27 31 0 1 7 28 1 29 25 29 25 100 28 32 27 0 0 0 -1 0 .1934768198156555 0
 -.981104846687662 .981104846687662 0 .1934768198156555 .0621533673532041 .03425
914607618485 .0653225335684971 1 3 ?11 29 29 0 1 7 30 1 31 27 31 27 100 30 30 29
 0 0 0 -1 0 -.0885410052782842 0 .996072532692429 -.996072532692429 0 -.08854100
52782842 .0621533673532041 .0520391460761859 .0653225335684966 1 3 ?11 31 27 0 1
 7 32 1 33 29 33 29 100 32 28 31 0 0 0 1 0 -.88678540832214 0 -.462181392514818
 -.462181392514818 0 .88678540832214 -.025794132646796 .0522660217231919 .065322
5335684966 1 3 ?11 33 25 0 1 7 34 1 35 31 35 31 100 34 26 33 0 0 0 1 0 -.8867854
0832214 0 -.462181392514818 -.462181392514818 0 .88678540832214 -.02579413264679
6 .0725860217231919 .0653225335684966 1 3 ?11 35 23 0 1 7 36 1 37 33 37 33 100 3
6 24 35 0 0 0 1 0 -.88678540832214 0 -.462181392514818 -.462181392514818 0 .8867
8540832214 -.02579413264679595 .0903660217231914 .0653225335684966 1 3 ?11 37 21
 0 1 7 38 1 39 35 39 35 100 38 22 37 0 0 0 1 0 -.88678540832214 0 -.462181392514
818 -.462181392514818 0 .88678540832214 -.02579413264679595 .1106860217231914 .0
653225335684966 1 3 ?11 39 19 0 1 7 40 1 41 37 41 37 100 40 20 39 0 0 0 1 0 -.88
678540832214 0 -.462181392514818 -.462181392514818 0 .88678540832214 .0589783673
532041 .0522660217231919 .0653225335684966 1 3 ?11 41 17 0 1 7 42 1 43 39 43 39
 100 42 18 41 0 0 0 1 0 -.88678540832214 0 -.462181392514818 -.462181392514818 0
 .88678540832214 .0589783673532041 .0725860217231919 .0653225335684966 1 3 ?11 4
3 15 0 1 7 44 1 45 41 45 41 100 44 16 43 0 0 0 1 0 -.88678540832214 0 -.46218139
2514818 -.462181392514818 0 .88678540832214 .0589783673532041 .0903660217231914
 .0653225335684966 1 3 ?11 45 13 0 1 7 46 1 47 43 0 43 100 46 14 45 0 0 0 -1 0 -
.0885410052782842 0 .996072532692429 -.996072532692429 0 -.0885410052782842 .060
5658673532041 .1106860217231914 .0653225335684966 1 3 ?11 47 11 0 1 48 49 1 50 4
5 51 0 12 48 973 52 53 0 0 0 0 0 0 1e3 1e-8 47 54 55 1 0 1 1 56 57 58 59 0 0 60
 61 62 0 0 0 0 0 0 100 49 12 47 0 0 -1 0 0 0 -1 0 0 0 1 .01738586735320405 .1195
760217231914 .0653225335684966 1 3 ?11 50 9 0 1 12 63 1 64 47 0 0 12 12 146 65 6
6 0 0 0 0 0 0 1e3 1e-8 50 67 7 1 0 1 1 68 69 70 0 0 0 71 72 0 0 0 0 0 0 0 100 63
 10 50 0 0 1 0 0 0 1 0 0 0 1 -.001664132646795975 .0624260217231919 .06405253356
84966 1 1 ?11 64 7 0 1 67 73 1 74 50 0 0 12 67 146 75 76 0 0 0 0 0 0 1e3 1e-8 64
 55 12 1 0 1 1 77 78 79 0 0 0 80 81 0 0 0 0 0 0 0 100 73 8 64 0 0 1 0 0 0 1 0 0
 0 1 .0364358673532041 .1005260217231914 .0640525335684966 1 1 ?11 74 5 0 1 55 8
2 1 51 64 0 0 12 55 138 83 84 0 0 0 0 0 0 1e3 1e-8 74 48 67 1 0 1 1 85 86 87 0 0
 0 88 89 0 0 0 0 0 0 0 100 82 6 74 0 0 1 0 0 0 1 0 0 0 1 -.00166413264679593 .10
05260217231914 .0640525335684966 1 1 ?11 51 3 0 1 48 90 1 91 74 0 47 100 90 4 51
 0 0 1 0 0 0 1 0 0 0 1 .017385867353204 .0433760217231919 .0653225335684966 1 1
 ?11 91 1 0 1 54 92 1 0 51 0 0 12 54 2727 93 94 0 0 0 0 0 0 1e3 1e-8 91 95 48 1
 0 1 1 96 97 98 99 0 0 100 101 102 0 0 0 0 0 0 100 92 2 91 0 0 1 0 0 0 1 0 0 0 1
 .01738586735320405 .0621991460761859 .0742125335684966 1 1 ?81 1 93 2727 5 54 1
03 0 0 0 104 70 94 0 4 T54 0 0 4 20 1 105 105 13 255 96 94 0 54 0 106 0 0 107 0
 50 255 97 89 0 106 108 0 0 +.047625 -.047625 -.01778 1 0 0 0 0 -1 31 255 98 683
 0 109 110 0 0 +.04318 -.02794 -.00889 1 0 0 0 0 -1 .003175 29 255 99 157 0 102
 111 0 .04318 -.047625 -.004445 19 8 CCCCCCCA5 owner12 0 Z100 28 0 54 107 0 112
 V0 16 255 101 74 0 ?113 0 114 115 0 0 54 18 255 102 155 0 116 0 117 99 ?54 17 2
55 116 0 118 119 120 102 121 122 0 123 -18 117 135 0 124 102 125 111 ?54 17 124
 0 126 127 128 117 129 130 0 131 +18 125 25 0 132 117 133 134 ?54 29 111 137 0 1
17 135 99 -.04318 .047625 -.004445 29 135 70 0 136 137 111 .047625 -.047625 0 18
 136 61 0 113 138 139 135 ?54 29 137 71 0 139 140 135 -.047625 -.047625 0 18 139
 62 0 141 136 142 137 ?54 29 140 72 0 142 143 137 -.047625 .047625 0 18 142 63 0
 144 139 145 140 ?54 29 143 73 0 145 134 140 .047625 .047625 0 18 145 64 0 146 1
42 147 143 ?54 29 134 27 0 125 148 143 .047625 -.047625 -.01778 29 148 24 0 133
 149 134 -.047625 -.047625 -.01778 18 133 22 0 150 125 151 148 ?54 29 149 21 0 1
51 152 148 -.047625 .047625 -.01778 18 151 19 0 153 133 138 149 ?54 29 152 18 0
 138 154 149 .047625 .047625 -.01778 18 138 16 0 155 151 136 152 ?54 29 154 254
 0 156 157 152 -.04318 .047625 -.013335 18 156 207 0 128 158 159 154 ?54 29 157
 255 0 159 160 154 .04318 .047625 -.013335 18 159 209 0 161 156 162 157 ?54 29 1
60 256 0 162 163 157 .04318 .047625 -.004445 18 162 211 0 119 159 0 160 ?54 29 1
63 258 0 147 164 160 -.04318 -.047625 -.013335 18 147 204 0 165 145 166 163 ?54
 29 164 259 0 166 167 163 .04318 -.047625 -.013335 18 166 206 0 120 147 158 164
 ?54 29 167 261 0 158 0 164 -.04318 -.047625 -.004445 18 158 210 0 127 166 156 1
67 ?54 17 127 0 126 168 124 158 131 169 0 170 -15 255 126 215 0 124 171 172 17 1
68 0 126 128 127 147 173 174 0 175 -17 131 0 176 177 170 117 127 169 0 178 +16 1
69 179 0 ?131 179 180 181 0 0 54 17 170 0 176 131 123 158 182 183 0 173 -15 176
 227 0 177 184 185 17 123 0 176 170 177 102 119 179 0 182 -17 182 0 186 121 173
 102 170 183 0 0 +16 183 188 0 ?182 122 174 187 0 0 54 17 173 0 186 182 175 158
 168 174 0 0 +15 186 171 0 173 188 189 17 175 0 186 173 121 147 190 180 0 0 +16
 174 176 0 ?173 183 191 192 0 0 54 16 191 201 0 ?193 174 194 195 0 0 54 30 255 1
92 253 0 174 196 187 0 +-.04318 -.047625 -.013335 0 0 1 31 196 402 0 197 198 192
 0 +.01905 0 -.013335 0 0 -1 -1 0 0 .0127 30 187 252 0 183 192 199 0 +-.04318 -.
047625 -.004445 1 0 0 30 199 251 0 122 187 200 0 +.04318 -.047625 -.004445 0 0 -
1 16 122 184 0 ?121 180 183 199 0 0 54 30 200 250 0 180 199 201 0 +.04318 -.0476
25 -.013335 -1 0 0 16 180 180 0 ?175 169 122 200 0 0 54 30 201 249 0 130 200 202
 0 +-.04318 .047625 -.013335 0 0 1 16 130 192 0 ?124 203 197 201 0 0 54 30 202 2
48 0 203 201 204 0 +-.04318 .047625 -.004445 1 0 0 16 203 195 0 ?177 194 130 202
 0 0 54 30 204 247 0 194 202 195 0 +.04318 .047625 -.004445 0 0 -1 16 194 198 0
 ?205 191 203 204 0 0 54 30 195 246 0 191 204 206 0 +.04318 .047625 -.013335 -1
 0 0 30 206 245 0 207 195 208 0 +-.04318 -.047625 -.013335 0 1 0 16 207 183 0 ?1
28 209 210 206 0 0 54 30 208 244 0 210 206 211 0 +.04318 -.047625 -.013335 0 1 0
 16 210 187 0 ?161 207 179 208 0 0 54 30 211 243 0 179 208 181 0 +.04318 -.04762
5 -.004445 0 1 0 16 179 191 0 ?119 210 169 211 0 0 54 30 181 242 0 169 211 212 0
 +-.04318 -.047625 -.004445 0 1 0 30 212 5 0 213 181 214 0 +.047625 -.047625 -.0
1778 0 1 0 16 213 4 0 ?215 216 217 212 0 0 54 30 214 8 0 216 212 218 0 +-.047625
 .047625 -.01778 -1 0 0 16 216 7 0 ?219 220 213 214 0 0 54 30 218 11 0 220 214 2
21 0 +-.047625 -.047625 -.01778 0 -1 0 16 220 10 0 ?222 223 216 218 0 0 54 30 22
1 14 0 223 218 224 0 +-.047625 -.047625 -.01778 1 0 0 16 223 13 0 ?225 226 220 2
21 0 0 54 30 224 69 0 209 221 227 0 +.047625 -.047625 0 0 1 0 16 209 57 0 ?228 2
29 207 224 0 0 54 30 227 68 0 229 224 230 0 +-.047625 .047625 0 -1 0 0 16 229 53
 0 ?231 232 209 227 0 0 54 30 230 67 0 232 227 233 0 +-.047625 -.047625 0 0 -1 0
 16 232 49 0 ?234 217 229 230 0 0 54 30 233 66 0 217 230 115 0 +-.047625 -.04762
5 0 1 0 0 16 217 45 0 ?235 213 232 233 0 0 54 30 115 90 0 101 233 236 0 +.047625
 -.047625 -.01778 0 0 1 30 236 91 0 114 115 237 0 +-.047625 -.047625 -.01778 0 0
 1 16 114 75 0 ?141 101 238 236 0 0 54 30 237 92 0 238 236 239 0 +-.047625 .0476
25 -.01778 0 0 1 16 238 76 0 ?144 114 226 237 0 0 54 30 239 93 0 226 237 240 0 +
.047625 .047625 -.01778 0 0 1 16 226 77 0 ?146 238 223 239 0 0 54 31 240 289 0 2
41 239 242 0 --.01905 0 -.004445 0 0 1 1 0 0 .0127 16 241 367 0 ?243 244 245 240
 0 0 54 31 242 295 0 246 240 247 0 +.01905 0 -.004445 0 0 1 1 0 0 .0127 16 246 3
37 0 ?248 197 244 242 0 0 54 31 247 662 0 249 242 250 0 +.04318 .01016 -.00889 1
 0 0 0 0 -1 .003175 16 249 862 0 ?251 252 253 247 0 0 54 31 250 669 0 254 247 11
0 0 -.04318 -.01016 -.00889 1 0 0 0 0 -1 .003175 16 254 832 0 ?255 256 252 250 0
 0 54 31 110 676 0 257 250 98 0 -.04318 .02794 -.00889 1 0 0 0 0 -1 .003175 16 2
57 802 0 ?258 259 256 110 0 0 54 17 258 0 260 258 258 0 261 257 0 0 +16 259 801
 0 ?262 109 257 263 0 0 54 16 256 831 0 ?264 257 254 265 0 0 54 17 264 0 266 264
 264 0 267 256 0 0 +31 265 909 0 256 268 263 0 --.04318 -.01016 -.00889 -1 0 0 0
 0 1 .003175 31 268 910 0 252 269 265 0 +-.04318 .01016 -.00889 -1 0 0 0 0 1 .00
3175 31 263 908 0 259 265 270 0 --.04318 .02794 -.00889 -1 0 0 0 0 1 .003175 31
 270 907 0 271 263 272 0 +-.04318 -.02794 -.00889 -1 0 0 0 0 1 .003175 16 271 77
1 0 ?273 274 109 270 0 0 54 31 272 407 0 245 270 275 0 +.01905 0 -.01778 0 0 1 1
 0 0 .0127 16 245 333 0 ?276 241 277 272 0 0 54 31 275 406 0 277 272 278 0 +.019
05 0 0 0 0 1 1 0 0 .0127 16 277 338 0 ?279 245 280 275 0 0 54 31 278 405 0 280 2
75 281 0 --.01905 0 -.01778 0 0 1 1 0 0 .0127 16 280 368 0 ?282 277 274 278 0 0
 54 31 281 404 0 274 278 198 0 --.01905 0 0 0 0 1 1 0 0 .0127 16 274 363 0 ?283
 280 271 281 0 0 54 31 198 403 0 244 281 196 0 --.01905 0 -.013335 0 0 -1 -1 0 0
 .0127 16 244 366 0 ?284 246 241 198 0 0 54 17 284 0 285 284 284 0 286 244 0 0 +
15 285 375 0 284 287 0 17 286 0 288 286 286 0 284 244 0 0 -15 288 300 0 286 289
 290 14 255 289 306 291 ?184 292 293 96 294 -0 0 184 292 112 15 290 304 0 295 28
9 0 17 295 0 290 295 295 0 296 197 0 0 +17 296 0 297 296 296 0 295 197 0 0 -16 1
97 336 0 ?295 130 246 196 0 0 54 15 297 345 0 296 298 0 14 298 341 299 ?300 287
 301 96 302 -303 303 300 287 112 81 1 299 2718 304 298 305 0 306 307 308 14 300
 871 307 ?309 298 310 96 311 -312 312 309 298 112 14 287 371 306 ?298 303 313 96
 314 +315 315 298 303 112 15 301 344 0 316 298 297 51 255 302 399 0 298 311 314
 0 +.01905 0 -.01778 0 0 1 .0127 1 0 0 14 303 346 317 ?287 315 318 96 302 -298 2
98 287 315 112 13 112 29 0 0 0 0 0 0 100 106 14 106 757 319 ?320 0 321 96 97 +0
 0 320 0 112 81 1 319 2705 304 106 322 0 0 323 324 14 320 729 323 ?171 106 325 9
6 326 +0 0 171 106 112 15 321 762 0 327 106 328 17 327 0 321 327 327 0 329 330 0
 0 -15 328 747 0 331 106 332 17 331 0 328 331 331 0 333 334 0 0 +15 332 741 0 33
5 106 336 17 335 0 332 335 335 0 337 338 0 0 -15 336 84 0 339 106 340 17 339 0 3
36 132 146 136 228 209 0 235 -15 340 754 0 341 106 0 17 341 0 340 341 341 0 342
 343 0 0 +17 342 0 344 342 342 0 341 343 0 0 -16 343 798 0 ?341 345 346 347 0 0
 54 16 345 803 0 ?348 334 343 349 0 0 54 16 346 768 0 ?350 343 330 351 0 0 54 31
 347 915 0 343 349 351 0 -.047625 .02794 -.00889 1 0 0 0 0 -1 .003175 31 349 916
 0 345 352 347 0 --.047625 .02794 -.00889 1 0 0 0 0 -1 .003175 31 351 914 0 346
 347 353 0 +-.047625 -.02794 -.00889 1 0 0 0 0 -1 .003175 31 353 913 0 330 351 3
54 0 +.047625 -.02794 -.00889 1 0 0 0 0 -1 .003175 16 330 773 0 ?329 346 0 353 0
 0 54 31 354 912 0 253 353 269 0 +-.047625 .01016 -.00889 1 0 0 0 0 -1 .003175 1
6 253 858 0 ?355 249 338 354 0 0 54 31 269 911 0 338 354 268 0 +.047625 .01016 -
.00889 1 0 0 0 0 -1 .003175 16 338 863 0 ?337 253 356 269 0 0 54 17 337 0 310 33
7 337 0 335 338 0 0 +16 356 833 0 ?357 338 334 358 0 0 54 17 357 0 359 357 357 0
 360 356 0 0 +16 334 828 0 ?331 356 345 352 0 0 54 31 358 918 0 356 0 352 0 --.0
47625 -.01016 -.00889 1 0 0 0 0 -1 .003175 31 352 917 0 334 358 349 0 -.047625 -
.01016 -.00889 1 0 0 0 0 -1 .003175 15 359 839 0 357 361 266 17 360 0 362 360 36
0 0 357 356 0 0 -15 362 719 0 360 320 363 15 363 713 0 355 320 364 17 355 0 363
 355 355 0 365 253 0 0 +15 364 80 0 366 320 367 17 366 0 364 153 141 142 234 232
 0 231 -15 367 726 0 368 320 0 17 368 0 367 368 368 0 348 345 0 0 -17 348 0 369
 348 348 0 368 345 0 0 +15 369 809 0 348 370 371 14 370 806 372 ?373 361 369 96
 374 +375 375 373 361 112 15 371 810 0 262 370 0 17 262 0 371 262 262 0 376 259
 0 0 +17 376 0 377 376 376 0 262 259 0 0 -15 377 701 0 376 171 0 14 171 702 378
 ?379 320 380 96 381 -0 0 379 320 112 81 1 378 2707 304 171 382 0 323 383 384 14
 379 677 383 ?385 171 386 96 387 -0 0 385 171 112 15 380 706 0 273 171 388 50 38
1 236 0 171 389 390 0 +-.04318 -.047625 -.013335 -1 0 0 0 0 1 50 389 237 0 184 3
87 381 0 +-.04318 -.047625 -.004445 0 0 1 1 0 0 50 390 2 0 385 381 391 0 +0 0 -.
01778 0 0 -1 -1 0 0 14 385 330 392 ?292 379 393 96 390 +0 0 292 379 112 50 391 6
5 0 292 390 394 0 +0 0 0 0 0 -1 -1 0 0 14 292 318 395 ?289 385 396 96 391 -0 0 2
89 385 112 50 394 86 0 188 391 326 0 +-.047625 -.047625 -.01778 0 -1 0 0 0 -1 14
 188 79 397 ?398 184 186 96 394 +0 0 398 184 112 50 326 87 0 320 394 108 0 +-.04
7625 -.047625 -.01778 -1 0 0 0 0 1 50 108 88 0 398 326 97 0 +-.047625 .047625 -.
01778 0 1 0 0 0 1 14 398 83 399 ?315 188 400 96 108 +0 0 315 188 112 81 1 399 27
14 304 398 401 0 397 402 403 14 315 376 402 ?303 398 404 96 314 +287 287 303 398
 112 15 400 151 0 129 398 405 17 129 0 400 406 178 156 124 130 0 0 -15 405 82 0
 407 398 0 17 407 0 405 155 144 145 231 229 0 228 -17 155 0 405 219 407 138 146
 226 0 408 -17 144 0 405 407 219 142 153 238 0 366 +17 231 0 396 234 228 142 407
 229 0 0 +17 228 0 396 231 235 145 339 209 0 0 +15 396 44 0 228 292 409 17 235 0
 396 228 234 136 410 217 0 0 +17 234 0 396 235 231 139 366 232 0 410 +17 410 0 1
89 150 113 139 235 217 0 0 -15 189 78 0 410 188 0 17 150 0 189 225 410 133 141 1
14 0 222 -17 113 0 189 410 225 136 132 101 0 339 +17 225 0 189 113 150 125 411 2
23 0 0 +17 132 0 336 215 339 125 113 101 0 412 -17 215 0 336 146 132 138 412 213
 0 0 +17 412 0 413 411 408 125 215 213 0 225 -15 413 3 0 412 385 414 17 411 0 41
3 415 412 133 225 223 0 0 -17 408 0 413 412 415 138 219 216 0 215 -17 415 0 413
 408 411 151 222 220 0 219 -17 219 0 405 144 155 151 408 216 0 0 +17 222 0 364 1
41 153 133 415 220 0 411 +17 141 0 364 366 222 139 150 114 0 234 +17 153 0 364 2
22 366 151 144 238 0 415 -15 414 328 0 276 385 0 17 276 0 414 276 276 0 316 245
 0 0 +17 316 0 301 316 316 0 276 245 0 0 -17 146 0 336 339 215 145 155 226 0 407
 +15 409 310 0 283 292 416 17 283 0 409 283 283 0 417 274 0 0 +15 416 315 0 418
 292 0 17 418 0 416 418 418 0 279 277 0 0 -17 279 0 318 279 279 0 418 277 0 0 +1
5 318 349 0 279 303 419 15 419 350 0 420 303 0 17 420 0 419 420 420 0 248 246 0
 0 -17 248 0 421 248 248 0 420 246 0 0 +15 421 293 0 248 184 0 14 184 296 422 ?1
88 289 176 96 389 -0 0 188 289 112 81 1 422 2712 304 184 423 0 291 397 424 80 25
5 1 304 0 425 8001 0 0 0 0 3 5 0 0 0 FFFFTFTFFFFFFF2 81 1 423 2697 426 184 0 422
 427 428 429 81 1 291 2711 304 289 430 0 395 422 431 81 1 397 2713 304 188 432 0
 422 399 433 83 255 3 424 1 1 1 81 1 432 2685 426 188 0 397 434 401 435 83 3 433
 1 1 1 80 1 426 436 437 9000 1 1 1 1 1 1 1 1 0 FFFFTFTFFFFFFF1 81 1 434 2683 426
 292 0 395 438 432 439 81 1 401 2687 426 398 0 399 432 440 441 82 255 1 435 -190
1068180 81 1 440 2689 426 315 0 402 401 305 442 82 1 441 -1900806036 81 1 402 27
15 304 315 440 0 399 317 443 81 1 305 2691 426 298 0 299 440 444 445 82 1 442 17
60100467 81 1 444 2693 426 287 0 306 305 427 446 82 1 445 1761804403 81 1 306 27
17 304 287 444 0 317 299 447 81 1 427 2695 426 303 0 317 444 423 448 82 1 446 17
60690291 81 1 317 2716 304 303 427 0 402 306 449 82 1 448 1761214579 83 3 449 1
 1 1 83 3 447 1 1 1 83 3 443 1 1 1 81 1 395 2710 304 292 434 0 392 291 450 81 1
 438 2681 426 385 0 392 451 434 452 82 1 439 1763836019 81 1 392 2709 304 385 43
8 0 383 395 453 81 1 451 2679 426 379 0 383 382 438 454 82 1 452 1764884595 81 1
 383 2708 304 379 451 0 378 392 455 81 1 382 2677 426 171 0 378 456 451 457 82 1
 454 914227330 81 1 456 2675 426 370 0 372 458 382 459 82 1 457 920846466 81 1 3
72 2725 304 370 456 0 460 461 462 81 1 458 2673 426 320 0 323 322 456 463 82 1 4
59 918159490 81 1 323 2706 304 320 458 0 319 378 464 81 1 322 2671 426 106 0 319
 465 458 466 82 1 463 923140226 81 1 465 2669 426 300 0 307 467 322 468 82 1 466
 925499522 81 1 307 2719 304 300 465 0 299 469 470 81 1 467 2667 426 471 0 472 4
73 465 474 82 1 468 915341442 14 471 781 472 ?312 375 475 96 476 -373 373 312 37
5 112 81 1 472 2722 304 471 467 0 477 478 479 81 1 473 2665 426 361 0 460 480 46
7 481 82 1 474 918683778 14 361 836 460 ?370 312 359 96 482 +309 309 370 312 112
 81 1 460 2724 304 361 473 0 478 372 483 81 1 480 2663 426 312 0 478 430 473 484
 82 1 481 917045378 14 312 866 478 ?361 471 485 96 311 -300 300 361 471 112 81 1
 478 2723 304 312 480 0 472 460 486 81 1 430 2661 426 289 0 291 0 480 487 82 1 4
84 915931266 82 1 487 1762787443 83 3 486 1 1 1 15 485 869 0 365 312 488 51 311
 895 0 312 476 302 0 +-.047625 .01016 -.00889 1 0 0 .003175 0 0 -1 51 476 898 0
 373 374 311 0 +-.047625 -.02794 -.00889 1 0 0 .003175 0 0 -1 14 373 776 461 ?0
 370 489 96 476 -471 471 0 370 112 51 374 901 0 370 482 476 0 --.047625 .02794 -
.00889 1 0 0 .003175 0 0 -1 51 482 904 0 361 0 374 0 --.047625 -.01016 -.00889 1
 0 0 .003175 0 0 -1 81 1 461 2726 304 373 490 0 372 0 491 15 489 779 0 492 373 4
93 17 492 0 489 492 492 0 350 346 0 0 -15 493 780 0 494 373 0 17 494 0 493 494 4
94 0 273 271 0 0 -17 273 0 380 273 273 0 494 271 0 0 +17 350 0 325 350 350 0 492
 346 0 0 +15 325 734 0 350 320 362 81 1 490 2703 426 373 0 461 495 0 496 83 3 49
1 1 1 1 81 1 495 2701 426 375 0 477 428 490 497 82 1 496 919273602 14 375 811 47
7 ?471 309 344 96 374 +370 370 471 309 112 81 1 477 2721 304 375 495 0 469 472 4
98 81 1 428 2699 426 309 0 469 423 495 499 82 1 497 917569666 14 309 841 469 ?37
5 300 500 96 482 +361 361 375 300 112 81 1 469 2720 304 309 428 0 307 477 501 82
 1 499 916455554 83 3 501 1 1 1 15 500 844 0 333 309 502 17 333 0 500 333 333 0
 331 334 0 0 -15 502 845 0 255 309 0 17 255 0 502 255 255 0 503 254 0 0 +17 503
 0 504 503 503 0 255 254 0 0 -15 504 668 0 503 379 505 15 505 675 0 261 379 0 17
 261 0 505 261 261 0 258 257 0 0 -83 3 498 1 1 1 15 344 814 0 342 375 260 15 260
 815 0 258 375 0 17 365 0 485 365 365 0 355 253 0 0 -15 488 870 0 506 312 0 17 5
06 0 488 506 506 0 507 252 0 0 -17 507 0 388 507 507 0 506 252 0 0 +16 252 861 0
 ?507 254 249 268 0 0 54 15 388 688 0 507 171 126 83 3 483 1 1 1 83 3 479 1 1 1
 15 475 784 0 329 471 508 17 329 0 475 329 329 0 327 330 0 0 +15 508 785 0 509 4
71 0 17 509 0 508 509 509 0 510 109 0 0 -17 510 0 386 510 510 0 509 109 0 0 +16
 109 772 0 ?510 271 259 98 0 0 54 15 386 681 0 510 379 511 15 511 660 0 251 379
 118 17 251 0 511 251 251 0 512 249 0 0 +15 118 223 0 205 379 504 17 205 0 118 1
20 119 159 513 194 0 406 +17 120 0 118 116 205 166 161 210 0 190 -17 119 0 118 2
05 116 162 123 179 0 177 +17 513 0 400 178 406 162 205 194 0 0 -17 406 0 400 513
 129 159 193 191 0 0 -17 193 0 293 165 161 156 406 191 0 129 +15 293 219 0 193 2
89 288 17 165 0 293 190 193 147 128 207 0 168 -17 161 0 293 193 190 159 120 210
 0 205 +17 190 0 293 161 165 166 175 180 0 121 -17 121 0 186 175 182 166 116 122
 0 0 +17 128 0 126 124 168 156 165 207 0 193 +17 178 0 400 129 513 117 177 203 0
 0 -17 177 0 176 123 131 162 178 203 0 513 +17 512 0 514 512 512 0 251 249 0 0 -
15 514 875 0 512 300 0 83 3 470 1 1 1 83 3 464 1 1 1 83 3 462 1 1 1 83 3 455 1 1
 1 83 3 453 1 1 1 83 3 450 1 1 1 79 255 14 437 SWEntUnchanged83 3 431 1 1 1 82 1
 429 1759641715 79 15 425 SDL/TYSA_COLOUR17 417 0 404 417 417 0 283 274 0 0 -15
 404 379 0 417 315 515 15 515 380 0 243 315 0 17 243 0 515 243 243 0 516 241 0 0
 +17 516 0 185 516 516 0 243 241 0 0 -15 185 288 0 516 184 421 51 314 396 0 287
 302 294 0 --.01905 0 -.01778 0 0 1 .0127 1 0 0 50 294 239 0 289 314 387 0 +.043
18 -.047625 -.013335 0 0 -1 -1 0 0 50 387 238 0 379 294 389 0 +.04318 -.047625 -
.004445 1 0 0 0 0 -1 83 3 403 1 1 1 15 393 321 0 517 385 413 17 517 0 393 517 51
7 0 282 280 0 0 -17 282 0 313 282 282 0 517 280 0 0 +15 313 374 0 282 287 285 83
 3 384 1 1 1 15 266 840 0 264 361 0 15 310 874 0 337 300 514 83 3 324 1 1 1 83 3
 308 1 1 1 17 267 0 172 267 267 0 264 256 0 0 -15 172 695 0 267 171 377 19 107 9
5 0 54 0 100 96 S0 74 4 CI16 index_map_offset0 0 1 dCCZ20 105 4 0 0 490 103 461
 93 0 0 0 0 0 0 0 0 0 0 0 0 0 0 0 0 81 2 103 457 518 54 0 93 0 0 519 0 80 2 518
 520 521 8004 0 0 0 0 3 5 0 0 0 FFTFFFFFFFFFFF2 3 83 1 519 1 79 16 521 SDL/TYSA_
DENSITY80 1 5 522 523 8017 0 0 0 0 0 0 0 0 0 TTTTTTTTTTTTTF3 84 255 10 104 conta
iner279 13 523 SDL/TYSA_NAME81 1 83 138 5 55 524 0 0 0 525 70 84 0 4 T55 0 0 4 2
0 1 526 526 13 85 29 0 55 0 527 0 0 528 0 51 86 28 0 527 529 0 0 -0 0 .00254 0 0
 -1 .0127 -1 0 0 31 87 23 0 530 531 0 0 +0 0 0 0 0 1 1 0 0 .0127 19 88 7 0 55 52
8 0 532 V0 16 89 4 0 ?533 0 530 531 0 0 55 17 533 0 534 533 533 0 535 89 0 0 +16
 530 18 0 ?536 89 0 87 0 0 55 31 531 5 0 89 0 87 0 +0 0 .00254 0 0 1 1 0 0 .0127
 17 536 0 537 536 536 0 538 530 0 0 +15 537 26 0 536 527 0 17 538 0 539 538 538
 0 536 530 0 0 -15 539 17 0 538 540 0 14 540 16 541 ?0 542 539 85 529 -0 0 0 542
 532 81 1 541 137 304 540 543 0 544 0 545 14 542 1 544 ?540 527 534 85 546 +0 0
 540 527 532 50 529 22 0 540 546 86 0 +0 0 0 0 0 1 1 0 0 13 532 8 0 0 0 0 0 0 88
 527 14 527 25 547 ?542 0 548 85 86 -0 0 542 0 532 81 1 547 135 304 527 549 0 0
 544 550 15 548 24 0 535 527 537 17 535 0 548 535 535 0 533 89 0 0 -81 1 549 133
 426 527 0 547 551 0 552 81 1 544 136 304 542 551 0 547 541 553 83 3 550 1 .5019
60784313726 .501960784313726 81 1 551 131 426 542 0 544 543 549 554 83 3 553 1 .
501960784313726 .501960784313726 81 1 543 129 426 540 0 541 0 551 555 82 1 554 -
146145176 82 1 555 -144441240 82 1 552 -144179096 50 546 2 0 542 0 529 0 +0 0 .0
0254 0 0 1 1 0 0 15 534 3 0 533 542 0 83 3 545 1 .501960784313726 .5019607843137
26 19 528 30 0 55 0 88 85 S0 74 20 526 4 0 0 549 524 541 83 0 0 0 0 0 0 0 0 0 0
 0 0 0 0 0 0 81 2 524 56 518 55 0 83 0 0 556 0 83 1 556 1 84 10 525 red filter81
 1 75 146 5 67 557 0 0 0 558 70 76 0 4 T67 0 0 4 20 1 559 559 13 77 29 0 67 0 56
0 0 0 561 0 51 78 28 0 560 562 0 0 -0 0 .00254 0 0 -1 .0127 -1 0 0 31 79 23 0 56
3 564 0 0 +0 0 0 0 0 1 1 0 0 .0127 19 80 7 0 67 561 0 565 V0 16 81 4 0 ?566 0 56
3 564 0 0 67 17 566 0 567 566 566 0 568 81 0 0 +16 563 18 0 ?569 81 0 79 0 0 67
 31 564 5 0 81 0 79 0 +0 0 .00254 0 0 1 1 0 0 .0127 17 569 0 570 569 569 0 571 5
63 0 0 +15 570 26 0 569 560 0 17 571 0 572 571 571 0 569 563 0 0 -15 572 17 0 57
1 573 0 14 573 16 574 ?0 575 572 77 562 -0 0 0 575 565 81 1 574 145 304 573 576
 0 577 0 578 14 575 1 577 ?573 560 567 77 579 +0 0 573 560 565 50 562 22 0 573 5
79 78 0 +0 0 0 0 0 1 1 0 0 13 565 8 0 0 0 0 0 0 80 560 14 560 25 580 ?575 0 581
 77 78 -0 0 575 0 565 81 1 580 143 304 560 582 0 0 577 583 15 581 24 0 568 560 5
70 17 568 0 581 568 568 0 566 81 0 0 -81 1 582 141 426 560 0 580 584 0 585 81 1
 577 144 304 575 584 0 580 574 586 83 3 583 .501960784313726 .501960784313726 1
 81 1 584 139 426 575 0 577 576 582 587 83 3 586 .501960784313726 .5019607843137
26 1 81 1 576 137 426 573 0 574 0 584 588 82 1 587 -146145176 82 1 588 -14444124
0 82 1 585 -144179096 50 579 2 0 575 0 562 0 +0 0 .00254 0 0 1 1 0 0 15 567 3 0
 566 575 0 83 3 578 .501960784313726 .501960784313726 1 19 561 30 0 67 0 80 77 S
0 74 20 559 4 0 0 582 557 574 75 0 0 0 0 0 0 0 0 0 0 0 0 0 0 0 0 81 2 557 56 518
 67 0 75 0 0 589 0 83 1 589 1 84 11 558 blue filter81 1 65 146 5 12 590 0 0 0 59
1 70 66 0 4 T12 0 0 4 20 1 592 592 13 68 29 0 12 0 593 0 0 594 0 51 69 28 0 593
 595 0 0 -0 0 .00254 0 0 -1 .0127 -1 0 0 31 70 23 0 596 597 0 0 +0 0 0 0 0 1 1 0
 0 .0127 19 71 7 0 12 594 0 598 V0 16 72 4 0 ?599 0 596 597 0 0 12 17 599 0 600
 599 599 0 601 72 0 0 +16 596 18 0 ?602 72 0 70 0 0 12 31 597 5 0 72 0 70 0 +0 0
 .00254 0 0 1 1 0 0 .0127 17 602 0 603 602 602 0 604 596 0 0 +15 603 26 0 602 59
3 0 17 604 0 605 604 604 0 602 596 0 0 -15 605 17 0 604 606 0 14 606 16 607 ?0 6
08 605 68 595 -0 0 0 608 598 81 1 607 145 304 606 609 0 610 0 611 14 608 1 610 ?
606 593 600 68 612 +0 0 606 593 598 50 595 22 0 606 612 69 0 +0 0 0 0 0 1 1 0 0
 13 598 8 0 0 0 0 0 0 71 593 14 593 25 613 ?608 0 614 68 69 -0 0 608 0 598 81 1
 613 143 304 593 615 0 0 610 616 15 614 24 0 601 593 603 17 601 0 614 601 601 0
 599 72 0 0 -81 1 615 141 426 593 0 613 617 0 618 81 1 610 144 304 608 617 0 613
 607 619 83 3 616 1 1 .501960784313726 81 1 617 139 426 608 0 610 609 615 620 83
 3 619 1 1 .501960784313726 81 1 609 137 426 606 0 607 0 617 621 82 1 620 -14614
5176 82 1 621 -144441240 82 1 618 -144179096 50 612 2 0 608 0 595 0 +0 0 .00254
 0 0 1 1 0 0 15 600 3 0 599 608 0 83 3 611 1 1 .501960784313726 19 594 30 0 12 0
 71 68 S0 74 20 592 4 0 0 615 590 607 65 0 0 0 0 0 0 0 0 0 0 0 0 0 0 0 0 81 2 59
0 56 518 12 0 65 0 0 622 0 83 1 622 1 84 13 591 yellow filter81 1 52 973 5 48 62
3 0 0 0 624 70 53 0 4 T48 0 0 4 20 1 625 625 13 56 94 0 48 0 626 0 0 627 0 50 57
 89 0 628 629 0 0 +.04318 .0381 -.004445 -1 0 0 0 0 1 31 58 270 0 630 631 0 0 -0
 -.02911974387893085 0 0 -1 0 0 0 -1 .003175 29 59 70 0 632 633 0 .04318 0 .0044
45 19 60 28 0 48 627 0 634 V0 16 61 224 0 ?635 0 636 631 0 0 48 18 62 25 0 637 0
 638 639 ?48 17 637 0 640 641 642 62 643 644 0 645 +18 638 22 0 642 62 646 647 ?
48 29 639 27 0 62 647 648 .04318 .0381 .004445 29 647 24 0 638 649 639 -.04318 .
0381 .004445 29 648 73 0 650 639 651 .04318 0 -.004445 18 650 64 0 652 653 0 648
 ?48 29 651 72 0 653 648 633 -.04318 0 -.004445 18 653 63 0 654 655 650 651 ?48
 29 633 71 0 655 651 59 -.04318 0 .004445 18 655 62 0 656 632 653 633 ?48 17 656
 0 657 658 659 655 660 661 0 662 +18 632 61 0 663 664 655 59 ?48 17 663 0 665 64
5 662 632 666 667 0 668 +18 664 16 0 669 646 632 670 ?48 17 669 0 671 672 673 66
4 674 675 0 641 -18 646 19 0 674 638 664 649 ?48 29 670 18 0 664 0 649 .04318 .0
381 -.004445 29 649 21 0 646 670 647 -.04318 .0381 -.004445 17 674 0 640 642 641
 646 669 675 0 673 +15 640 3 0 641 676 0 17 642 0 640 637 674 638 677 678 0 658
 +17 641 0 640 674 637 664 679 680 0 681 +16 675 7 0 ?674 678 680 682 0 0 48 17
 673 0 671 669 654 646 659 683 0 677 -15 671 82 0 654 626 684 17 654 0 671 673 6
72 653 652 685 0 659 +17 659 0 657 656 677 653 673 683 0 660 +16 683 76 0 ?659 6
36 686 687 0 0 48 17 677 0 657 659 658 646 642 678 0 0 -15 657 80 0 656 688 0 17
 658 0 657 677 656 638 662 686 0 643 -16 678 10 0 ?642 644 675 689 0 0 48 16 644
 13 0 ?637 690 678 691 0 0 48 30 689 11 0 678 682 691 0 +-.04318 .0381 -.004445
 0 0 1 30 682 8 0 675 692 689 0 +-.04318 .0381 -.004445 -1 0 0 30 691 14 0 644 6
89 693 0 +-.04318 .0381 .004445 1 0 0 30 693 69 0 694 691 695 0 +.04318 0 -.0044
45 0 0 -1 16 694 57 0 ?696 685 697 693 0 0 48 30 695 68 0 685 693 698 0 +-.04318
 0 -.004445 -1 0 0 16 685 53 0 ?654 661 694 695 0 0 48 30 698 67 0 661 695 699 0
 +-.04318 0 -.004445 0 0 1 16 661 49 0 ?656 667 685 698 0 0 48 30 699 66 0 667 6
98 700 0 +-.04318 0 .004445 1 0 0 16 667 45 0 ?663 680 661 699 0 0 48 30 700 90
 0 690 699 701 0 +.04318 .0381 .004445 0 -1 0 16 690 74 0 ?668 686 644 700 0 0 4
8 30 701 91 0 686 700 687 0 +-.04318 .0381 .004445 0 -1 0 16 686 75 0 ?662 683 6
90 701 0 0 48 30 687 92 0 683 701 702 0 +-.04318 .0381 -.004445 0 -1 0 30 702 93
 0 636 687 631 0 +.04318 .0381 -.004445 0 -1 0 16 636 77 0 ?672 61 683 702 0 0 4
8 31 631 227 0 61 702 58 0 -0 0 0 0 1 0 0 0 1 .003175 17 672 0 671 654 669 650 6
81 636 0 696 +17 681 0 703 679 696 664 672 636 0 0 -17 696 0 703 681 668 650 704
 694 0 0 +15 703 84 0 696 628 0 17 668 0 703 696 679 632 645 690 0 704 +17 704 0
 705 666 652 632 696 694 0 0 -15 705 44 0 704 706 0 17 666 0 705 660 704 655 663
 667 0 0 -17 652 0 705 704 660 650 654 685 0 672 -17 660 0 705 652 666 653 656 6
61 0 0 -14 706 43 707 ?708 676 709 56 710 -0 0 708 676 634 81 1 707 960 304 706
 711 0 712 713 714 14 708 185 713 ?715 706 716 56 717 +0 0 715 706 634 14 676 1
 712 ?706 688 640 56 718 +0 0 706 688 634 15 709 226 0 719 706 705 50 710 65 0 7
06 718 720 0 +0 0 0 0 1 0 0 0 1 13 634 29 0 0 0 0 0 0 60 626 14 626 158 721 ?722
 0 671 56 629 -0 0 722 0 634 81 1 721 955 304 626 723 0 0 724 725 14 722 146 724
 ?628 626 665 56 720 -0 0 628 626 634 50 629 88 0 626 726 57 0 +-.04318 .0381 -.
004445 0 0 1 1 0 0 50 726 87 0 688 720 629 0 +-.04318 .0381 -.004445 1 0 0 0 0 -
1 14 688 81 727 ?676 628 728 56 726 -0 0 676 628 634 50 720 86 0 722 710 726 0 +
-.04318 .0381 .004445 0 0 -1 -1 0 0 81 1 727 958 304 688 729 0 730 712 731 14 62
8 85 730 ?688 722 732 56 57 -0 0 688 722 634 15 728 384 0 733 688 734 17 733 0 7
28 733 733 0 735 736 0 0 +15 734 378 0 737 688 657 17 737 0 734 737 737 0 738 73
9 0 0 +17 738 0 740 738 738 0 737 739 0 0 -16 739 407 0 ?737 741 0 742 0 0 48 16
 741 410 0 ?743 736 739 744 0 0 48 31 742 434 0 739 744 745 0 +-.04318 .00889 -1
088711004441996e-33 1 0 0 0 0 1 .003175 31 744 435 0 741 746 742 0 +-.0415925 .0
0889 -1088711004441996e-33 1 0 0 0 0 1 .003175 31 745 358 0 747 742 748 0 +.0415
925 .02921 -1088711004441996e-33 1 0 0 0 0 -1 .003175 16 747 310 0 ?749 630 750
 745 0 0 48 31 748 357 0 750 745 751 0 +.04318 .02921 -1088711004441996e-33 1 0
 0 0 0 -1 .003175 16 750 313 0 ?752 747 753 748 0 0 48 31 751 356 0 753 748 754
 0 +.0415925 .00889 -1088711004441996e-33 1 0 0 0 0 1 .003175 16 753 328 0 ?755
 750 756 751 0 0 48 31 754 355 0 756 751 757 0 +.04318 .00889 -1088711004441996e
-33 1 0 0 0 0 1 .003175 16 756 331 0 ?758 753 759 754 0 0 48 31 757 209 0 697 75
4 760 0 +.01905 .01905 -.004445 0 0 1 1 0 0 .0127 16 697 161 0 ?761 694 762 757
 0 0 48 31 760 208 0 762 757 763 0 +.01905 .01905 .004445 0 0 1 1 0 0 .0127 16 7
62 164 0 ?764 697 765 760 0 0 48 31 763 207 0 765 760 766 0 --.01905 .01905 -.00
4445 0 0 1 1 0 0 .0127 16 765 182 0 ?767 762 768 763 0 0 48 31 766 206 0 768 763
 692 0 --.01905 .01905 .004445 0 0 1 1 0 0 .0127 16 768 179 0 ?769 765 630 766 0
 0 48 30 692 5 0 680 766 682 0 +.04318 .0381 -.004445 0 0 -1 16 680 4 0 ?641 675
 667 692 0 0 48 17 769 0 770 769 769 0 771 768 0 0 +16 630 274 0 ?772 768 747 58
 0 0 48 17 772 0 773 772 772 0 774 630 0 0 +15 773 268 0 772 775 776 17 774 0 77
7 774 774 0 772 630 0 0 -15 777 277 0 774 778 0 14 778 275 779 ?780 775 777 56 7
81 +0 0 780 775 634 81 1 779 964 304 778 782 0 783 784 785 14 780 334 784 ?786 7
78 787 56 788 -0 0 786 778 634 14 775 237 783 ?778 715 773 56 789 -0 0 778 715 6
34 53 255 781 283 0 778 788 789 0 +-339541038040496e-32 -.0381 -302309499701475e
-48 .009525 183697019872103e-30 0 -1 1 0 183697019872103e-30 51 788 349 0 780 79
0 781 0 +.0415925 .00889 -1088711004441996e-33 1 0 0 .003175 0 0 -1 51 789 250 0
 775 781 791 0 -0 -.0381 0 0 1 0 .003175 0 0 1 51 791 203 0 715 789 717 0 +.0190
5 .01905 -.004445 0 0 1 .0127 1 0 0 14 715 167 792 ?775 708 793 56 791 -0 0 775
 708 634 51 717 200 0 708 791 718 0 --.01905 .01905 -.004445 0 0 1 .0127 1 0 0 5
0 718 2 0 676 717 710 0 +0 .0381 0 0 1 0 0 0 1 81 1 792 962 304 715 794 0 713 78
3 795 15 793 170 0 796 715 797 17 796 0 793 796 796 0 761 697 0 0 -15 797 171 0
 764 715 0 17 764 0 797 764 764 0 798 762 0 0 +17 798 0 799 798 798 0 764 762 0
 0 -15 799 143 0 798 722 0 17 761 0 800 761 761 0 796 697 0 0 +15 800 155 0 761
 626 0 81 1 794 939 426 715 0 792 801 802 803 81 1 713 961 304 708 804 0 707 792
 805 81 1 783 963 304 775 801 0 792 779 806 83 3 795 1 1 1 81 1 801 937 426 775
 0 783 807 794 808 83 3 806 1 1 1 81 1 807 935 426 780 0 784 782 801 809 82 1 80
8 441385087 81 1 784 965 304 780 807 0 779 810 811 81 1 782 933 426 778 0 779 81
2 807 813 82 1 809 48562310 81 1 812 931 426 628 0 730 729 782 814 82 1 813 4590
14271 81 1 730 957 304 628 812 0 724 727 815 81 1 729 929 426 688 0 727 816 812
 817 82 1 814 998113414 81 1 816 927 426 722 0 724 723 729 818 82 1 817 99758912
8 81 1 724 956 304 722 816 0 721 730 819 81 1 723 925 426 626 0 721 820 816 821
 82 1 818 -24444818 81 1 820 923 426 676 0 712 804 723 822 82 1 821 -23396242 81
 1 712 959 304 676 820 0 727 707 823 81 1 804 921 426 708 0 713 711 820 824 82 1
 822 990773353 81 1 711 919 426 706 0 707 0 804 825 82 1 824 -27787154 82 1 825
 996409468 83 3 823 1 1 1 83 3 819 1 1 1 83 3 815 1 1 1 81 1 810 966 304 786 802
 0 784 826 827 83 3 811 1 1 1 14 786 339 810 ?828 780 829 56 790 -0 0 828 780 63
4 81 1 802 941 426 786 0 810 794 830 831 81 1 826 967 304 828 830 0 810 832 833
 83 3 827 1 1 1 14 828 316 826 ?834 786 835 56 836 -0 0 834 786 634 81 1 830 943
 426 828 0 826 802 837 838 81 1 832 968 304 834 837 0 826 839 840 83 3 833 1 1 1
 14 834 321 832 ?841 828 842 56 843 +0 0 841 828 634 81 1 837 945 426 834 0 832
 830 844 845 81 1 839 969 304 841 844 0 832 846 847 83 3 840 1 1 1 14 841 413 83
9 ?848 834 849 56 850 +0 0 848 834 634 81 1 844 947 426 841 0 839 837 851 852 81
 1 846 970 304 848 851 0 839 853 854 83 3 847 1 1 1 14 848 418 846 ?855 841 856
 56 857 -0 0 855 841 634 81 1 851 949 426 848 0 846 844 858 859 81 1 853 971 304
 855 858 0 846 860 861 83 3 854 1 1 1 14 855 395 853 ?862 848 863 56 864 +0 0 86
2 848 634 81 1 858 951 426 855 0 853 851 865 866 81 1 860 972 304 862 865 0 853
 0 867 83 3 861 1 1 1 14 862 400 860 ?0 855 868 56 869 +0 0 0 855 634 81 1 865 9
53 426 862 0 860 858 0 870 83 3 867 1 1 1 82 1 870 667549832 15 868 402 0 871 86
2 0 50 869 433 0 862 0 864 0 +-.0415925 .02921 -1088711004441996e-33 -1 0 0 0 0
 -1 51 864 431 0 855 869 857 0 --.0415925 .02921 -1088711004441996e-33 -1 0 0 .0
03175 0 0 1 50 857 430 0 848 864 850 0 +-.0415925 .00889 -1088711004441996e-33 1
 0 0 0 0 1 51 850 428 0 841 857 843 0 --.0415925 .00889 -1088711004441996e-33 -1
 0 0 .003175 0 0 1 50 843 354 0 834 850 836 0 +.0415925 .02921 -1088711004441996
e-33 1 0 0 0 0 -1 51 836 352 0 828 843 790 0 +.0415925 .02921 -1088711004441996e
-33 1 0 0 .003175 0 0 -1 50 790 351 0 786 836 788 0 +.0415925 .00889 -1088711004
441996e-33 -1 0 0 0 0 1 17 871 0 868 871 871 0 872 759 0 0 -17 872 0 863 872 872
 0 871 759 0 0 +16 759 392 0 ?872 756 736 873 0 0 48 16 736 389 0 ?733 759 741 7
46 0 0 48 31 873 437 0 759 0 746 0 +-.0415925 .02921 -1088711004441996e-33 1 0 0
 0 0 -1 .003175 31 746 436 0 736 873 744 0 +-.04318 .02921 -1088711004441996e-33
 1 0 0 0 0 -1 .003175 15 863 398 0 872 855 874 15 874 399 0 735 855 0 17 735 0 8
74 735 735 0 733 736 0 0 -82 1 866 669515912 82 1 859 671678600 15 856 420 0 875
 848 0 17 875 0 856 875 875 0 743 741 0 0 -17 743 0 849 743 743 0 875 741 0 0 +1
5 849 416 0 743 841 740 15 740 417 0 738 841 0 82 1 852 673644680 82 1 845 42598
534 15 842 323 0 749 834 0 17 749 0 842 749 749 0 876 747 0 0 +17 876 0 835 876
 876 0 749 747 0 0 -15 835 319 0 876 828 877 15 877 320 0 752 828 0 17 752 0 877
 752 752 0 878 750 0 0 +17 878 0 732 878 878 0 752 750 0 0 -15 732 304 0 878 628
 879 15 879 298 0 880 628 703 17 880 0 879 880 880 0 758 756 0 0 -17 758 0 881 7
58 758 0 880 756 0 0 +15 881 338 0 758 780 0 82 1 838 44564614 82 1 831 46596230
 15 829 341 0 755 786 0 17 755 0 829 755 755 0 882 753 0 0 +17 882 0 787 882 882
 0 755 753 0 0 -15 787 337 0 882 780 881 83 3 805 1 1 1 82 1 803 -32374674 83 3
 785 1 1 1 15 776 241 0 635 775 0 17 635 0 776 635 635 0 719 61 0 0 +17 719 0 70
9 719 719 0 635 61 0 0 -15 770 138 0 769 722 799 17 771 0 883 771 771 0 769 768
 0 0 -15 883 189 0 771 708 0 17 767 0 716 767 767 0 884 765 0 0 +15 716 188 0 76
7 708 883 17 884 0 684 884 884 0 767 765 0 0 -15 684 150 0 884 626 800 83 3 731
 1 1 1 15 665 78 0 663 722 770 83 3 725 1 1 1 83 3 714 1 1 1 17 679 0 703 668 68
1 62 641 680 0 0 -17 645 0 665 643 663 62 668 690 0 679 -17 643 0 665 662 645 63
8 637 644 0 0 -17 662 0 665 663 643 655 658 686 0 666 +19 627 95 0 48 0 60 56 S0
 74 20 625 4 0 0 865 623 860 52 0 0 0 0 0 0 0 0 0 0 0 0 0 0 0 0 81 2 623 468 518
 48 0 52 0 0 885 0 83 1 885 1 84 10 624 stoplight181 1 10 183 5 7 886 0 0 0 887
 70 11 0 4 T7 0 0 4 20 1 888 888 13 13 29 0 7 0 889 0 0 890 0 51 14 28 0 889 891
 0 0 -0 .0015875 0 0 -1 0 .003175 0 0 -1 31 15 23 0 892 893 0 0 +0 0 0 0 1 0 0 0
 1 .003175 19 16 7 0 7 890 0 894 V0 16 17 4 0 ?895 0 892 893 0 0 7 17 895 0 896
 895 895 0 897 17 0 0 +16 892 18 0 ?898 17 0 15 0 0 7 31 893 5 0 17 0 15 0 +0 .0
015875 0 0 1 0 0 0 1 .003175 17 898 0 899 898 898 0 900 892 0 0 +15 899 26 0 898
 889 0 17 900 0 901 900 900 0 898 892 0 0 -15 901 17 0 900 902 0 14 902 16 903 ?
0 904 901 13 891 -0 0 0 904 894 81 1 903 182 304 902 905 0 906 0 907 14 904 1 90
6 ?902 889 896 13 908 +0 0 902 889 894 50 891 22 0 902 908 14 0 +0 0 0 0 1 0 0 0
 1 13 894 8 0 0 0 0 0 0 16 889 14 889 25 909 ?904 0 910 13 14 -0 0 904 0 894 81
 1 909 180 304 889 911 0 0 906 912 15 910 24 0 897 889 899 17 897 0 910 897 897
 0 895 17 0 0 -81 1 911 178 426 889 0 909 913 0 914 81 1 906 181 304 904 913 0 9
09 903 915 83 3 912 .686274509803922 .607843137254902 .529411764705882 81 1 913
 176 426 904 0 906 905 911 916 83 3 915 .686274509803922 .607843137254902 .52941
1764705882 81 1 905 174 426 902 0 903 0 913 917 82 1 916 -1118371735 82 1 917 -1
116667799 82 1 914 -1116405655 50 908 2 0 904 0 891 0 +0 .0015875 0 0 1 0 0 0 1
 15 896 3 0 895 904 0 83 3 907 .686274509803922 .607843137254902 .52941176470588
2 19 890 30 0 7 0 16 13 S0 74 20 888 4 0 0 911 886 903 10 0 0 0 0 0 0 0 0 0 0 0
 0 0 0 0 0 81 2 886 56 518 7 0 10 0 0 918 0 83 1 918 1 84 6 887 magnet74 20 6 1
 0 0 2 0 0 0 0 0 0 0 0 0 0 0 0 0 0 0 0 0 0 0 1 0 
